Coordinates
version=1
nRows=29
nColumns=24
inDegrees=yes

Units are S.I. units (second, meters, Newtons, ...)
Angles are in degrees.

endheader
time	pelvis_tilt	pelvis_list	pelvis_rotation	pelvis_tx	pelvis_ty	pelvis_tz	hip_flexion_r	hip_adduction_r	hip_rotation_r	knee_angle_r	ankle_angle_r	subtalar_angle_r	mtp_angle_r	hip_flexion_l	hip_adduction_l	hip_rotation_l	knee_angle_l	ankle_angle_l	subtalar_angle_l	mtp_angle_l	lumbar_extension	lumbar_bending	lumbar_rotation
      1.13783333	     -2.96239154	     -3.41376734	     -3.92701252	     -0.16419455	      1.00669451	      0.35478447	     -8.10887415	      8.39787685	      4.03343974	    -14.61167958	     16.87222423	     -0.68931890	      2.86343859	     25.73748739	     -2.76825200	     -5.83551731	      2.58288307	      7.86692895	      0.81521115	     -2.25294701	      0.21129780	      1.61654773	      9.58772559
      1.14200000	     -2.97580631	     -3.27826316	     -4.00309424	     -0.15861998	      1.00605220	      0.35466884	     -8.20530794	      8.23635726	      4.11585468	    -15.05884924	     16.91403701	     -0.77943881	      2.86843936	     25.81318558	     -2.58201720	     -5.73690296	      1.97636418	      8.06792384	      0.70557466	     -2.21397368	      0.24599119	      1.44635671	      9.63259081
      1.14616667	     -2.99219484	     -3.14596935	     -4.07741779	     -0.15300272	      1.00542541	      0.35455735	     -8.28393382	      8.08151016	      4.19833388	    -15.53852971	     16.94028825	     -0.87721649	      2.87748021	     25.88748814	     -2.40160077	     -5.63796868	      1.34391259	      8.24996830	      0.59606496	     -2.16190128	      0.31047529	      1.27057131	      9.69819984
      1.15033333	     -3.01976729	     -3.00943732	     -4.14995718	     -0.14733632	      1.00479702	      0.35444796	     -8.33742389	      7.92575782	      4.28474074	    -16.04767424	     16.94284916	     -0.98009402	      2.89373361	     25.96736720	     -2.21967726	     -5.54408944	      0.69795954	      8.38069947	      0.47276765	     -2.08907063	      0.40867662	      1.08071529	      9.78493018
      1.15450000	     -3.09122685	     -2.87823289	     -4.22746182	     -0.14165468	      1.00412648	      0.35431810	     -8.32179307	      7.77970829	      4.38345577	    -16.59815687	     16.90153322	     -1.09249607	      2.96388291	     26.08795874	     -2.04592489	     -5.42337141	      0.04706189	      8.41869313	      0.27686894	     -1.83916870	      0.54285058	      0.93794002	      9.97849132
      1.15866667	     -3.09502235	     -2.72038434	     -4.28441170	     -0.13587761	      1.00358935	      0.35418938	     -8.38776544	      7.60715884	      4.49179416	    -17.13248849	     16.83976395	     -1.23524006	      3.04899530	     26.10241635	     -1.83339805	     -5.24237272	     -0.55329941	      8.40469321	     -0.00671900	     -1.58835919	      0.61043119	      0.70008016	     10.03958376
      1.16283333	     -3.09238849	     -2.59139365	     -4.33603209	     -0.13009846	      1.00305929	      0.35400248	     -8.42741567	      7.45797894	      4.53535680	    -17.72722516	     16.70091614	     -1.37710388	      4.19606112	     26.10243319	     -1.64439796	     -5.04906448	     -1.13476745	      8.25003488	     -0.39951801	      1.17402758	      0.65974377	      0.55463820	     10.00893745
      1.16700000	     -3.10173345	     -2.43429688	     -4.39405407	     -0.12425960	      1.00255299	      0.35383095	     -8.44280261	      7.28229321	      4.60615655	    -18.34686385	     16.56375133	     -1.51137597	      4.21900804	     26.10415204	     -1.43259622	     -4.90213232	     -1.71014664	      8.12701725	     -0.68396622	      1.20140028	      0.75443161	      0.33530516	     10.14171244
      1.17116667	     -3.12177310	     -2.29941346	     -4.44223315	     -0.11840626	      1.00205249	      0.35360873	     -8.42215833	      7.12852826	      4.63638778	    -19.01257309	     16.39645847	     -1.63210231	      4.29796167	     26.09374835	     -1.23126368	     -4.63138896	     -2.23476826	      7.86471255	     -1.22732706	      1.28175470	      0.85501617	      0.18777505	     10.23479425
      1.17533333	     -3.12987858	     -2.14681569	     -4.48441771	     -0.11250088	      1.00159434	      0.35337449	     -8.39690029	      6.95255758	      4.64211024	    -19.70982413	     16.20682834	     -1.71788048	      4.42297858	     26.05525507	     -1.00999031	     -4.37275787	     -2.72757892	      7.54484465	     -1.74697824	      1.39788975	      0.94531149	     -0.00290678	     10.27784778
      1.17950000	     -3.15198094	     -1.99968091	     -4.51926748	     -0.10656850	      1.00114750	      0.35309756	     -8.33356987	      6.78032847	      4.62047879	    -20.44684657	     15.97933682	     -1.78247919	      4.59210119	     26.02268759	     -0.79040729	     -4.11057881	     -3.19947451	      7.16841190	     -2.27741918	      1.54292838	      1.05897769	     -0.18774590	     10.31834105
      1.18366667	     -3.12217377	     -1.83327434	     -4.54379540	     -0.10058444	      1.00081217	      0.35277593	     -8.30643966	      6.57283983	      4.53385954	    -21.21228410	     15.69392440	     -1.79984151	      4.88426620	     25.90806575	     -0.53985267	     -3.82538039	     -3.61433230	      6.74435220	     -2.85777451	      1.77654203	      1.12004268	     -0.40664045	     10.34800542
      1.18783333	     -3.16692824	     -1.68288615	     -4.57296377	     -0.09460796	      1.00038304	      0.35244609	     -8.16566346	      6.38883455	      4.45188918	    -22.04517278	     15.43268323	     -1.79440251	      5.14140965	     25.88995672	     -0.31849608	     -3.60842638	     -4.05672862	      6.23904875	     -3.36034979	      1.96229224	      1.26542137	     -0.58184880	     10.36613438
      1.19200000	     -3.13421016	     -1.50815563	     -4.58708218	     -0.08856317	      1.00011901	      0.35205336	     -8.08951218	      6.15419364	      4.26998991	    -22.89533802	     15.06671627	     -1.72844805	      5.55480179	     25.74766621	     -0.05437193	     -3.32560586	     -4.41424633	      5.70185515	     -3.96531853	      2.24054717	      1.33362961	     -0.78846718	     10.38271828
      1.19616667	     -3.13734252	     -1.34022060	     -4.59378559	     -0.08251702	      0.99983416	      0.35162624	     -7.94549347	      5.92382481	      4.05857927	    -23.79464118	     14.67506136	     -1.62640347	      6.10170037	     25.65511000	      0.19897655	     -3.08400549	     -4.79173036	      5.14228153	     -4.49301473	      2.57520982	      1.44249495	     -0.98746466	     10.37976779
      1.20033333	     -3.13018212	     -1.17561626	     -4.60078617	     -0.07644969	      0.99962156	      0.35121797	     -7.80872941	      5.70181392	      3.88948993	    -24.67879354	     14.11536792	     -1.68155238	      9.48951698	     25.55815023	      0.43789972	     -2.94334967	     -5.18111567	      4.52889605	     -4.87406875	      4.45105636	      1.54043058	     -1.19748590	     10.33608129
      1.20450000	     -3.10124660	     -0.96981237	     -4.60794782	     -0.07037294	      0.99945641	      0.35074872	     -7.62864031	      5.39775099	      3.56063947	    -25.69531558	     13.72892463	     -1.40573154	      9.57665463	     25.43469818	      0.72004268	     -2.86160356	     -5.56489468	      3.98668654	     -5.19833199	      4.46667086	      1.59930090	     -1.46058184	     10.34877807
      1.20866667	     -3.08323613	     -0.77853741	     -4.59999807	     -0.06428413	      0.99931668	      0.35023539	     -7.42317609	      5.10564730	      3.21763072	    -26.72013142	     13.22119468	     -1.19007418	      9.75688791	     25.30914084	      0.99640566	     -2.68422155	     -5.92330315	      3.41280012	     -5.64068190	      4.50977898	      1.68639683	     -1.68961739	     10.31272134
      1.21283333	     -3.04008369	     -0.57184763	     -4.58773771	     -0.05818610	      0.99926385	      0.34970790	     -7.21819139	      4.78182784	      2.83463401	    -27.77901900	     12.66244629	     -0.94554544	     10.00267978	     25.15823949	      1.28566291	     -2.56214158	     -6.28801220	      2.86410736	     -5.99629582	      4.56658627	      1.74167808	     -1.94646340	     10.27069687
      1.21700000	     -2.99576768	     -0.35534743	     -4.56926265	     -0.05207582	      0.99926401	      0.34914609	     -6.98663073	      4.43078168	      2.40376105	    -28.87276634	     12.03511625	     -0.66914441	     10.33032018	     25.00639781	      1.58455151	     -2.45859288	     -6.66010531	      2.35184257	     -6.32151844	      4.63786306	      1.79775430	     -2.20715851	     10.21694531
      1.22116667	     -2.93091909	     -0.15892880	     -4.54348277	     -0.04597584	      0.99933870	      0.34855313	     -6.76318850	      4.08767922	      1.95630954	    -29.95464880	     11.13916080	     -0.50085207	     14.58047692	     24.83310884	      1.86358219	     -2.36644562	     -7.03919126	      1.86717110	     -6.62217115	      5.50174122	      1.83301839	     -2.41942005	     10.16644521
      1.22533333	     -2.86193582	      0.07295770	     -4.51263905	     -0.03985915	      0.99944981	      0.34797287	     -6.50974296	      3.69516276	      1.47181240	    -31.10210981	     10.34290606	     -0.26998267	     14.61189141	     24.66845137	      2.16810811	     -2.37644640	     -7.45816105	      1.56370716	     -6.66966537	      5.49985897	      1.86825652	     -2.71885644	     10.11547478
      1.22950000	     -2.76694141	      0.31595296	     -4.46940930	     -0.03380363	      0.99961852	      0.34731569	     -6.23890202	      3.25650715	      0.90034218	    -32.32185746	      9.60790632	      0.14604338	     14.76736880	     24.48261372	      2.49533270	     -2.35457781	     -7.88520193	      1.18360178	     -6.89731170	      5.50440228	      1.84298238	     -3.02189211	     10.00317578
      1.23366667	     -2.70270549	      0.55331841	     -4.42021748	     -0.02773638	      0.99980213	      0.34664600	     -5.91833699	      2.81802472	      0.33294208	    -33.54572534	      8.69838633	      0.45580549	     15.04426894	     24.32414388	      2.81355080	     -2.32848947	     -8.31298963	      0.87240475	     -7.07727072	      5.51422227	      1.87126660	     -3.30592966	      9.88748885
      1.23783333	     -2.58413687	      0.79079774	     -4.36815455	     -0.02168388	      1.00011055	      0.34598074	     -5.64383715	      2.36824137	     -0.22577313	    -34.76184527	      7.62758389	      0.67605707	     15.17801751	     24.10431036	      3.12847136	     -2.35377837	     -8.74632183	      0.69731935	     -7.08852818	      5.51819182	      1.83781307	     -3.58879285	      9.83090134
      1.24200000	     -2.46085363	      1.03827388	     -4.29897278	     -0.01567630	      1.00044460	      0.34526168	     -5.34376864	      1.88562658	     -0.83334662	    -36.00404823	      6.43195529	      0.82433863	     19.49551006	     23.86972791	      3.47058288	     -2.28499876	     -9.15392818	      0.41112368	     -7.40872824	      5.59582151	      1.75808507	     -3.90784641	      9.54170648
      1.24616667	     -2.35241211	      1.25582962	     -4.21158343	     -0.00971209	      1.00078083	      0.34450706	     -5.00114097	      1.42020425	     -1.47321627	    -37.28689467	      5.26309280	      1.09556329	     19.51075806	     23.68348233	      3.76776343	     -2.35955881	     -9.64430249	      0.36095546	     -7.31221068	      5.59593560	      1.72278027	     -4.17333486	      9.54155993
      1.25033333	     -2.24470867	      1.52200657	     -4.12722215	     -0.00375047	      1.00114551	      0.34374396	     -4.63226716	      0.88852874	     -2.09693976	    -38.59677235	      4.05292099	      1.34020035	     19.57735186	     23.48571496	      4.11348256	     -2.44103973	    -10.11135015	      0.32128308	     -7.18579228	      5.59283393	      1.68345620	     -4.47969211	      9.43800882
      1.25450000	     -2.12899590	      1.75727682	     -4.02949418	      0.00215790	      1.00154402	      0.34295775	     -4.25060436	      0.37582988	     -2.74094374	    -39.91836377	      2.73405658	      1.52283708	     19.63866166	     23.26853738	      4.43218941	     -2.50365045	    -10.55935877	      0.32583176	     -7.10135653	      5.58940374	      1.62297700	     -4.77319082	      9.32050817
